<?xml version="1.0" encoding="UTF-8"?>
<!DOCTYPE svg PUBLIC "-//W3C//DTD SVG 1.1//EN" "http://www.w3.org/Graphics/SVG/1.1/DTD/svg11.dtd">
<!-- Creator: CorelDRAW 2018 (64-Bit Evaluation Version) -->
<svg xmlns="http://www.w3.org/2000/svg" xml:space="preserve" width="179px" height="48px" version="1.1" style="shape-rendering:geometricPrecision; text-rendering:geometricPrecision; image-rendering:optimizeQuality; fill-rule:evenodd; clip-rule:evenodd"
viewBox="0 0 179 48.09"
 xmlns:xlink="http://www.w3.org/1999/xlink">
 <defs>
  <style type="text/css">
   <![CDATA[
    .fil0 {fill:#F39313}
    .fil1 {fill:#E31E24}
    .fil2 {fill:#FEFEFE;fill-rule:nonzero}
   ]]>
  </style>
 </defs>
 <g id="Layer_x0020_1">
  <metadata id="CorelCorpID_0Corel-Layer"/>
  <path class="fil0" d="M51.73 6.14c0.95,2.08 1.66,4.32 2.07,6.67 -14.55,10.8 -35.12,9.58 -47.29,0.04 0.43,-2.47 1.19,-4.82 2.22,-6.99 13.98,8.31 32,6.76 43,0.28zm2.46 10.11c0.02,0.47 0.03,0.94 0.03,1.42 0,2.43 -0.3,4.77 -0.88,7 -14.42,10.22 -34.41,8.98 -46.42,-0.27 -0.54,-2.14 -0.82,-4.4 -0.82,-6.73 0,-0.44 0.01,-0.88 0.03,-1.31 15.46,10.78 37.01,8.28 48.06,-0.11zm-2.6 13.25c-3.99,8.4 -12.08,14.15 -21.43,14.15 -9.44,0 -17.62,-5.88 -21.56,-14.43 13.99,8.31 31.99,6.76 42.99,0.28z"/>
  <polygon class="fil1" points="63.49,0.11 174.83,0.11 174.83,47.99 63.49,47.99 "/>
  <path class="fil2" d="M86.82 22.21l2.72 0c2.49,0 4.23,-0.35 5.24,-1.05 1.01,-0.69 1.52,-1.87 1.52,-3.52 0,-1.68 -0.49,-2.88 -1.45,-3.55 -0.98,-0.69 -2.85,-1.03 -5.63,-1.03l-2.4 0 0 9.15zm0 10.2c0,1.14 0.15,1.87 0.45,2.17 0.3,0.3 1.05,0.45 2.27,0.45l1.9 0 0 3.22 -14.58 0 0 -3.22 1.58 0c1.2,0 1.95,-0.15 2.24,-0.44 0.29,-0.3 0.44,-1.03 0.44,-2.18l0 -16.72c0,-1.16 -0.15,-1.88 -0.44,-2.18 -0.29,-0.3 -1.04,-0.45 -2.24,-0.45l-1.58 0 0 -3.21 14.3 0c3.66,0 6.42,0.65 8.29,1.97 1.87,1.3 2.8,3.25 2.8,5.82 0,1.41 -0.26,2.64 -0.77,3.68 -0.5,1.06 -1.27,1.94 -2.3,2.68 -0.73,0.51 -1.76,0.87 -3.08,1.09 -1.32,0.22 -3.16,0.33 -5.51,0.33l-3.77 0 0 6.99z"/>
  <path id="1" class="fil2" d="M107.12 9.85l14.57 0 0 3.21 -1.9 0c-1.21,0 -1.97,0.15 -2.27,0.46 -0.29,0.3 -0.44,1.03 -0.44,2.17l0 19.34 5.07 0c1.8,0 3.15,-0.16 4.05,-0.49 0.9,-0.32 1.54,-0.86 1.94,-1.62 0.38,-0.73 0.67,-1.62 0.85,-2.67 0.18,-1.05 0.27,-2.3 0.27,-3.76l0 -0.52 3.12 0 0 12.28 -25.26 0 0 -3.22 1.58 0c1.2,0 1.95,-0.15 2.24,-0.44 0.29,-0.3 0.43,-1.03 0.43,-2.18l0 -16.72c0,-1.16 -0.14,-1.88 -0.43,-2.18 -0.29,-0.3 -1.04,-0.45 -2.24,-0.45l-1.58 0 0 -3.21z"/>
  <path id="2" class="fil2" d="M138.58 38.25l0 -11.73 3.16 0c0.43,2.82 1.44,4.98 3.01,6.48 1.57,1.49 3.6,2.24 6.11,2.24 1.81,0 3.19,-0.32 4.14,-0.95 0.96,-0.64 1.44,-1.55 1.44,-2.74 0,-1.08 -0.37,-1.96 -1.1,-2.63 -0.73,-0.68 -1.9,-1.2 -3.51,-1.59l-4.41 -1.07c-3.17,-0.77 -5.44,-1.82 -6.83,-3.14 -1.39,-1.31 -2.09,-3.07 -2.09,-5.27 0,-2.68 0.89,-4.82 2.68,-6.43 1.77,-1.61 4.15,-2.42 7.13,-2.42 1.47,0 2.86,0.24 4.15,0.71 1.28,0.48 2.53,1.21 3.74,2.21l1.42 -2.07 2.42 0 0 10.75 -3.07 0c-0.46,-2.58 -1.44,-4.58 -2.92,-6 -1.48,-1.42 -3.35,-2.13 -5.59,-2.13 -1.63,0 -2.9,0.32 -3.8,0.96 -0.89,0.64 -1.34,1.54 -1.34,2.68 0,0.97 0.32,1.74 0.95,2.32 0.64,0.57 1.65,1.03 3.05,1.36l5.47 1.32c2.91,0.69 5.08,1.77 6.51,3.24 1.44,1.47 2.16,3.34 2.16,5.61 0,2.69 -0.95,4.88 -2.83,6.58 -1.89,1.7 -4.33,2.55 -7.34,2.55 -1.51,0 -3.02,-0.29 -4.51,-0.86 -1.49,-0.58 -2.99,-1.47 -4.52,-2.66l-0.9 2.68 -2.78 0z"/>
 </g>
</svg>
